<svg width="24" height="24" viewBox="0 0 24 24" fill="none" xmlns="http://www.w3.org/2000/svg">
<path d="M13.7302 21.0003C13.5546 21.3036 13.3024 21.5555 12.9987 21.7305C12.6951 21.9056 12.3507 21.9978 12.0002 21.9978C11.6497 21.9978 11.3054 21.9056 11.0018 21.7305C10.6981 21.5555 10.4459 21.3036 10.2702 21.0003M18.0002 8.4003C18.0002 6.7033 17.3682 5.07531 16.2432 3.87531C15.1172 2.67531 13.5902 2.00031 12.0002 2.00031C10.4092 2.00031 8.88324 2.67431 7.75724 3.87531C6.63224 5.07531 6.00024 6.7033 6.00024 8.4003C6.00024 15.8673 3.00024 18.0003 3.00024 18.0003H21.0002C21.0002 18.0003 18.0002 15.8673 18.0002 8.4003Z" stroke="#171717" stroke-width="1.5" stroke-linecap="round" stroke-linejoin="round"/>
</svg>
