<svg width="24" height="24" viewBox="0 0 24 24" fill="none" xmlns="http://www.w3.org/2000/svg">
<path d="M2.00024 19.0003V9.00031C2.00024 8.46987 2.21096 7.96116 2.58603 7.58609C2.9611 7.21102 3.46981 7.00031 4.00024 7.00031H4.50024C4.81073 7.00031 5.11696 6.92802 5.39467 6.78916C5.67238 6.6503 5.91395 6.4487 6.10024 6.2003L8.32024 3.24031C8.37613 3.16579 8.4486 3.10531 8.53192 3.06365C8.61523 3.02199 8.7071 3.00031 8.80024 3.00031H15.2002C15.2934 3.00031 15.3853 3.02199 15.4686 3.06365C15.5519 3.10531 15.6244 3.16579 15.6802 3.24031L17.9002 6.2003C18.0865 6.4487 18.3281 6.6503 18.6058 6.78916C18.8835 6.92802 19.1898 7.00031 19.5002 7.00031H20.0002C20.5307 7.00031 21.0394 7.21102 21.4145 7.58609C21.7895 7.96116 22.0002 8.46987 22.0002 9.00031V19.0003C22.0002 19.5307 21.7895 20.0394 21.4145 20.4145C21.0394 20.7896 20.5307 21.0003 20.0002 21.0003H4.00024C3.46981 21.0003 2.9611 20.7896 2.58603 20.4145C2.21096 20.0394 2.00024 19.5307 2.00024 19.0003Z" stroke="#171717" stroke-width="1.5" stroke-linecap="round" stroke-linejoin="round"/>
<path d="M12.0002 17.0003C13.0611 17.0003 14.0785 16.5789 14.8287 15.8287C15.5788 15.0786 16.0002 14.0612 16.0002 13.0003C16.0002 11.9394 15.5788 10.922 14.8287 10.1719C14.0785 9.42173 13.0611 9.00031 12.0002 9.00031C10.9394 9.00031 9.92196 9.42173 9.17182 10.1719C8.42167 10.922 8.00024 11.9394 8.00024 13.0003C8.00024 14.0612 8.42167 15.0786 9.17182 15.8287C9.92196 16.5789 10.9394 17.0003 12.0002 17.0003Z" stroke="#171717" stroke-width="1.5" stroke-linecap="round" stroke-linejoin="round"/>
</svg>
