<svg width="24" height="24" viewBox="0 0 24 24" fill="none" xmlns="http://www.w3.org/2000/svg">
<path d="M3.00037 3.60031H3.75037H3.00037ZM3.60037 3.00031V2.25031V3.00031ZM20.4004 3.00031V3.75031V3.00031ZM21.0004 3.60031H21.7504H21.0004ZM21.0004 20.4003H21.7504H21.0004ZM20.4004 21.0003V21.7503V21.0003ZM3.60037 21.0003V21.7503V21.0003ZM7.5307 11.97C7.2378 11.6771 6.76293 11.6771 6.47004 11.97C6.17714 12.2629 6.17714 12.7377 6.47004 13.0306L7.00037 12.5003L7.5307 11.97ZM10.0004 15.5003L9.47004 16.0306C9.76293 16.3235 10.2378 16.3235 10.5307 16.0306L10.0004 15.5003ZM17.5307 9.03064C17.8236 8.73774 17.8236 8.26287 17.5307 7.96997C17.2378 7.67708 16.7629 7.67708 16.47 7.96997L17.0004 8.50031L17.5307 9.03064ZM3.00037 20.4003H3.75037V3.60031H3.00037H2.25037V20.4003H3.00037ZM3.00037 3.60031H3.75037C3.75037 3.64009 3.73456 3.67824 3.70643 3.70637L3.1761 3.17604L2.64577 2.64571C2.3926 2.89889 2.25037 3.24226 2.25037 3.60031H3.00037ZM3.1761 3.17604L3.70643 3.70637C3.6783 3.7345 3.64015 3.75031 3.60037 3.75031V3.00031V2.25031C3.24232 2.25031 2.89895 2.39254 2.64577 2.64571L3.1761 3.17604ZM3.60037 3.00031V3.75031H20.4004V3.00031V2.25031H3.60037V3.00031ZM20.4004 3.00031V3.75031C20.3606 3.75031 20.3224 3.7345 20.2943 3.70637L20.8246 3.17604L21.355 2.64571C21.1018 2.39254 20.7584 2.25031 20.4004 2.25031V3.00031ZM20.8246 3.17604L20.2943 3.70637C20.2662 3.67824 20.2504 3.64009 20.2504 3.60031H21.0004H21.7504C21.7504 3.24226 21.6081 2.89889 21.355 2.64571L20.8246 3.17604ZM21.0004 3.60031H20.2504V20.4003H21.0004H21.7504V3.60031H21.0004ZM21.0004 20.4003H20.2504C20.2504 20.3605 20.2662 20.3224 20.2943 20.2942L20.8246 20.8246L21.355 21.3549C21.6081 21.1017 21.7504 20.7583 21.7504 20.4003H21.0004ZM20.8246 20.8246L20.2943 20.2942C20.3224 20.2661 20.3606 20.2503 20.4004 20.2503V21.0003V21.7503C20.7584 21.7503 21.1018 21.6081 21.355 21.3549L20.8246 20.8246ZM20.4004 21.0003V20.2503H3.60037V21.0003V21.7503H20.4004V21.0003ZM3.60037 21.0003V20.2503C3.64015 20.2503 3.6783 20.2661 3.70643 20.2942L3.1761 20.8246L2.64577 21.3549C2.89895 21.6081 3.24233 21.7503 3.60037 21.7503V21.0003ZM3.1761 20.8246L3.70643 20.2942C3.73456 20.3224 3.75037 20.3605 3.75037 20.4003H3.00037H2.25037C2.25037 20.7583 2.3926 21.1017 2.64577 21.3549L3.1761 20.8246ZM7.00037 12.5003L6.47004 13.0306L9.47004 16.0306L10.0004 15.5003L10.5307 14.97L7.5307 11.97L7.00037 12.5003ZM10.0004 15.5003L10.5307 16.0306L17.5307 9.03064L17.0004 8.50031L16.47 7.96997L9.47004 14.97L10.0004 15.5003Z" fill="#171717"/>
</svg>
