<svg width="24" height="24" viewBox="0 0 24 24" fill="none" xmlns="http://www.w3.org/2000/svg">
<path d="M12.0003 14.0003C12.5307 14.0003 13.0394 13.7896 13.4145 13.4145C13.7896 13.0394 14.0003 12.5307 14.0003 12.0003C14.0003 11.4699 13.7896 10.9612 13.4145 10.5861C13.0394 10.211 12.5307 10.0003 12.0003 10.0003C11.4699 10.0003 10.9612 10.211 10.5861 10.5861C10.211 10.9612 10.0003 11.4699 10.0003 12.0003C10.0003 12.5307 10.211 13.0394 10.5861 13.4145C10.9612 13.7896 11.4699 14.0003 12.0003 14.0003Z" stroke="#171717" stroke-width="1.5" stroke-linecap="round" stroke-linejoin="round"/>
<path d="M21.0003 12.0003C19.1113 14.9913 15.7183 18.0003 12.0003 18.0003C8.28231 18.0003 4.88931 14.9913 3.00031 12.0003C5.29931 9.15831 7.99231 6.00031 12.0003 6.00031C16.0083 6.00031 18.7013 9.15831 21.0003 12.0003Z" stroke="#171717" stroke-width="1.5" stroke-linecap="round" stroke-linejoin="round"/>
</svg>
