<svg width="24" height="24" viewBox="0 0 24 24" fill="none" xmlns="http://www.w3.org/2000/svg">
<path d="M3.00031 3.00031L21.0003 21.0003M10.5003 10.6773C10.1634 11.0588 9.98457 11.5544 10.0003 12.0632C10.0161 12.5719 10.2252 13.0555 10.5852 13.4155C10.9451 13.7754 11.4287 13.9845 11.9374 14.0003C12.4462 14.016 12.9418 13.8372 13.3233 13.5003M7.36231 7.56131C5.68031 8.74031 4.27931 10.4203 3.00031 12.0003C4.88931 14.9913 8.28231 18.0003 12.0003 18.0003C13.5503 18.0003 15.0433 17.4773 16.3953 16.6503M12.0003 6.00031C16.0083 6.00031 18.7013 9.15831 21.0003 12.0003C20.6708 12.5211 20.3108 13.022 19.9223 13.5003" stroke="#171717" stroke-width="1.5" stroke-linecap="round" stroke-linejoin="round"/>
</svg>
