<svg width="24" height="24" viewBox="0 0 24 24" fill="none" xmlns="http://www.w3.org/2000/svg">
<path d="M9.00037 17.0003H15.0004M17.0004 21.0003H7.00037C5.9395 21.0003 4.92208 20.5789 4.17194 19.8287C3.42179 19.0786 3.00037 18.0612 3.00037 17.0003V10.7083C3.00035 10.0205 3.17768 9.34435 3.51523 8.7451C3.85279 8.14584 4.33915 7.64375 4.92737 7.28731L9.92737 4.25731C10.5525 3.8785 11.2694 3.67822 12.0004 3.67822C12.7313 3.67822 13.4483 3.8785 14.0734 4.25731L19.0734 7.28731C19.6614 7.64366 20.1477 8.1456 20.4853 8.74466C20.8228 9.34373 21.0002 10.0197 21.0004 10.7073V17.0003C21.0004 18.0612 20.5789 19.0786 19.8288 19.8287C19.0786 20.5789 18.0612 21.0003 17.0004 21.0003Z" stroke="#171717" stroke-width="1.5" stroke-linecap="round" stroke-linejoin="round"/>
</svg>
