<svg width="24" height="24" viewBox="0 0 24 24" fill="none" xmlns="http://www.w3.org/2000/svg">
<path d="M3.00024 16.0003L10.0002 13.0003L21.0002 18.0003M21.0002 3.60031V20.4003C21.0002 20.5594 20.937 20.712 20.8245 20.8246C20.712 20.9371 20.5594 21.0003 20.4002 21.0003H3.60024C3.44111 21.0003 3.2885 20.9371 3.17598 20.8246C3.06346 20.712 3.00024 20.5594 3.00024 20.4003V3.60031C3.00024 3.44118 3.06346 3.28856 3.17598 3.17604C3.2885 3.06352 3.44111 3.00031 3.60024 3.00031H20.4002C20.5594 3.00031 20.712 3.06352 20.8245 3.17604C20.937 3.28856 21.0002 3.44118 21.0002 3.60031ZM16.0002 10.0003C15.4698 10.0003 14.9611 9.78959 14.586 9.41452C14.211 9.03945 14.0002 8.53074 14.0002 8.00031C14.0002 7.46987 14.211 6.96116 14.586 6.58609C14.9611 6.21102 15.4698 6.00031 16.0002 6.00031C16.5307 6.00031 17.0394 6.21102 17.4145 6.58609C17.7895 6.96116 18.0002 7.46987 18.0002 8.00031C18.0002 8.53074 17.7895 9.03945 17.4145 9.41452C17.0394 9.78959 16.5307 10.0003 16.0002 10.0003Z" stroke="#737373" stroke-width="1.5" stroke-linecap="round" stroke-linejoin="round"/>
</svg>
