<svg width="24" height="24" viewBox="0 0 24 24" fill="none" xmlns="http://www.w3.org/2000/svg">
<path d="M5.75024 10.0003C5.75024 9.58609 5.41446 9.25031 5.00024 9.25031C4.58603 9.25031 4.25024 9.58609 4.25024 10.0003H5.00024H5.75024ZM19.0002 11.0003H19.7502H19.0002ZM19.7502 10.0003C19.7502 9.58609 19.4145 9.25031 19.0002 9.25031C18.586 9.25031 18.2502 9.58609 18.2502 10.0003H19.0002H19.7502ZM9.00024 21.2503C8.58603 21.2503 8.25024 21.5861 8.25024 22.0003C8.25024 22.4145 8.58603 22.7503 9.00024 22.7503V22.0003V21.2503ZM15.0002 22.7503C15.4145 22.7503 15.7502 22.4145 15.7502 22.0003C15.7502 21.5861 15.4145 21.2503 15.0002 21.2503V22.0003V22.7503ZM12.0002 2.00031V2.75031C13.2429 2.75031 14.2502 3.75766 14.2502 5.00031H15.0002H15.7502C15.7502 2.92924 14.0713 1.25031 12.0002 1.25031V2.00031ZM15.0002 5.00031H14.2502V11.0003H15.0002H15.7502V5.00031H15.0002ZM15.0002 11.0003H14.2502C14.2502 12.2429 13.2429 13.2503 12.0002 13.2503V14.0003V14.7503C14.0713 14.7503 15.7502 13.0714 15.7502 11.0003H15.0002ZM12.0002 14.0003V13.2503C10.7576 13.2503 9.75024 12.2429 9.75024 11.0003H9.00024H8.25024C8.25024 13.0714 9.92918 14.7503 12.0002 14.7503V14.0003ZM9.00024 11.0003H9.75024V5.00031H9.00024H8.25024V11.0003H9.00024ZM9.00024 5.00031H9.75024C9.75024 3.75766 10.7576 2.75031 12.0002 2.75031V2.00031V1.25031C9.92918 1.25031 8.25024 2.92924 8.25024 5.00031H9.00024ZM5.00024 10.0003H4.25024V11.0003H5.00024H5.75024V10.0003H5.00024ZM5.00024 11.0003H4.25024C4.25024 13.0557 5.06676 15.027 6.52017 16.4804L7.0505 15.9501L7.58083 15.4197C6.40872 14.2476 5.75024 12.6579 5.75024 11.0003H5.00024ZM7.0505 15.9501L6.52017 16.4804C7.97357 17.9338 9.94482 18.7503 12.0002 18.7503V18.0003V17.2503C10.3426 17.2503 8.75293 16.5918 7.58083 15.4197L7.0505 15.9501ZM12.0002 18.0003V18.7503C14.0557 18.7503 16.0269 17.9338 17.4803 16.4804L16.95 15.9501L16.4197 15.4197C15.2476 16.5918 13.6578 17.2503 12.0002 17.2503V18.0003ZM16.95 15.9501L17.4803 16.4804C18.9337 15.027 19.7502 13.0557 19.7502 11.0003H19.0002H18.2502C18.2502 12.6579 17.5918 14.2476 16.4197 15.4197L16.95 15.9501ZM19.0002 11.0003H19.7502V10.0003H19.0002H18.2502V11.0003H19.0002ZM12.0002 18.0003H11.2502V22.0003H12.0002H12.7502V18.0003H12.0002ZM12.0002 22.0003V21.2503H9.00024V22.0003V22.7503H12.0002V22.0003ZM12.0002 22.0003V22.7503H15.0002V22.0003V21.2503H12.0002V22.0003Z" fill="#171717"/>
</svg>
