<svg width="24" height="24" viewBox="0 0 24 24" fill="none" xmlns="http://www.w3.org/2000/svg">
<path d="M6.00024 18.4003V5.60031C6.00024 5.44118 6.06346 5.28856 6.17598 5.17604C6.2885 5.06352 6.44111 5.00031 6.60024 5.00031H9.40024C9.55937 5.00031 9.71199 5.06352 9.82451 5.17604C9.93703 5.28856 10.0002 5.44118 10.0002 5.60031V18.4003C10.0002 18.5594 9.93703 18.712 9.82451 18.8246C9.71199 18.9371 9.55937 19.0003 9.40024 19.0003H6.60024C6.44111 19.0003 6.2885 18.9371 6.17598 18.8246C6.06346 18.712 6.00024 18.5594 6.00024 18.4003ZM14.0002 18.4003V5.60031C14.0002 5.44118 14.0635 5.28856 14.176 5.17604C14.2885 5.06352 14.4411 5.00031 14.6002 5.00031H17.4002C17.5594 5.00031 17.712 5.06352 17.8245 5.17604C17.937 5.28856 18.0002 5.44118 18.0002 5.60031V18.4003C18.0002 18.5594 17.937 18.712 17.8245 18.8246C17.712 18.9371 17.5594 19.0003 17.4002 19.0003H14.6002C14.4411 19.0003 14.2885 18.9371 14.176 18.8246C14.0635 18.712 14.0002 18.5594 14.0002 18.4003Z" stroke="#171717" stroke-width="1.5"/>
</svg>
