<svg width="24" height="24" viewBox="0 0 24 24" fill="none" xmlns="http://www.w3.org/2000/svg">
<path d="M6.90624 4.53731C6.81515 4.4833 6.71138 4.45436 6.60548 4.45344C6.49959 4.45251 6.39533 4.47963 6.3033 4.53204C6.21128 4.58446 6.13477 4.66029 6.08154 4.75184C6.02831 4.8434 6.00026 4.94741 6.00024 5.05331V18.9473C6.00026 19.0532 6.02831 19.1572 6.08154 19.2488C6.13477 19.3403 6.21128 19.4162 6.3033 19.4686C6.39533 19.521 6.49959 19.5481 6.60548 19.5472C6.71138 19.5463 6.81515 19.5173 6.90624 19.4633L18.6292 12.5163C18.7188 12.4632 18.7929 12.3877 18.8445 12.2972C18.896 12.2067 18.9231 12.1044 18.9231 12.0003C18.9231 11.8962 18.896 11.7939 18.8445 11.7034C18.7929 11.6129 18.7188 11.5374 18.6292 11.4843L6.90624 4.53731Z" stroke="#171717" stroke-width="1.5" stroke-linecap="round" stroke-linejoin="round"/>
</svg>
